<svg width="22" height="21" viewBox="0 0 22 21" fill="none" xmlns="http://www.w3.org/2000/svg">
<rect x="0.833313" y="0.380951" width="20.2381" height="20.2381" rx="5.95238" fill="#0ACF83"/>
<mask id="mask0" mask-type="alpha" maskUnits="userSpaceOnUse" x="0" y="0" width="22" height="21">
<rect x="0.833313" y="0.380981" width="20.2381" height="20.2381" rx="5.95238" fill="#0ACF83"/>
</mask>
<g mask="url(#mask0)">
<path d="M13.9022 10.0182C14.2974 11.4929 13.4206 13.0092 11.9438 13.4049C10.467 13.8006 8.9495 12.9259 8.55434 11.4511C8.15919 9.97642 9.03603 8.46014 10.5128 8.06444C11.9896 7.66873 13.5071 8.54345 13.9022 10.0182Z" fill="white"/>
<path fill-rule="evenodd" clip-rule="evenodd" d="M0.602709 1.89791C0.227587 2.27258 0.227375 2.87983 0.602236 3.25424L5.30889 7.9552C4.67252 9.30392 4.49216 10.8758 4.90812 12.4282C5.84211 15.9139 9.42893 17.9814 12.9195 17.0461C16.4101 16.1108 18.4826 12.5269 17.5486 9.04117C16.6146 5.55546 13.0278 3.48794 9.53722 4.42324C9.01169 4.56406 8.5183 4.76491 8.06247 5.01643L3.45019 0.409723C3.07533 0.0353154 2.46735 0.0355271 2.09222 0.410197L0.602709 1.89791ZM12.204 14.3759C14.2178 13.8363 15.4135 11.7687 14.8747 9.75771C14.3358 7.74672 12.2665 6.55392 10.2527 7.09352C8.23893 7.63311 7.04324 9.70077 7.58208 11.7118C8.12092 13.7227 10.1902 14.9155 12.204 14.3759Z" fill="white"/>
</g>
</svg>
