<svg width="100" height="16" viewBox="0 0 100 16" fill="none" xmlns="http://www.w3.org/2000/svg">
<path d="M8 1.33334L10.06 5.50668L14.6667 6.18001L11.3333 9.42668L12.12 14.0133L8 11.8467L3.88 14.0133L4.66667 9.42668L1.33334 6.18001L5.94 5.50668L8 1.33334Z" fill="#FFC120" stroke="#FFC120" stroke-width="1.5" stroke-linecap="round" stroke-linejoin="round"/>
<path d="M29 1.33334L31.06 5.50668L35.6667 6.18001L32.3333 9.42668L33.12 14.0133L29 11.8467L24.88 14.0133L25.6667 9.42668L22.3333 6.18001L26.94 5.50668L29 1.33334Z" fill="#FFC120" stroke="#FFC120" stroke-width="1.5" stroke-linecap="round" stroke-linejoin="round"/>
<path d="M50 1.33334L52.06 5.50668L56.6667 6.18001L53.3333 9.42668L54.12 14.0133L50 11.8467L45.88 14.0133L46.6667 9.42668L43.3333 6.18001L47.94 5.50668L50 1.33334Z" fill="#FFC120" stroke="#FFC120" stroke-width="1.5" stroke-linecap="round" stroke-linejoin="round"/>
<path d="M71 1.33334L73.06 5.50668L77.6667 6.18001L74.3333 9.42668L75.12 14.0133L71 11.8467L66.88 14.0133L67.6667 9.42668L64.3333 6.18001L68.94 5.50668L71 1.33334Z" fill="#FFC120" stroke="#FFC120" stroke-width="1.5" stroke-linecap="round" stroke-linejoin="round"/>
<path d="M92 1.33334L94.06 5.50668L98.6667 6.18001L95.3333 9.42668L96.12 14.0133L92 11.8467L87.88 14.0133L88.6667 9.42668L85.3333 6.18001L89.94 5.50668L92 1.33334Z" stroke="#BABABA" stroke-width="1.5" stroke-linecap="round" stroke-linejoin="round"/>
</svg>
