<svg width="100" height="16" viewBox="0 0 100 16" fill="none" xmlns="http://www.w3.org/2000/svg">
<path d="M8 1.33331L10.06 5.50665L14.6667 6.17998L11.3333 9.42665L12.12 14.0133L8 11.8466L3.88 14.0133L4.66667 9.42665L1.33334 6.17998L5.94 5.50665L8 1.33331Z" fill="#FFC120" stroke="#FFC120" stroke-width="1.5" stroke-linecap="round" stroke-linejoin="round"/>
<path d="M29 1.33331L31.06 5.50665L35.6667 6.17998L32.3333 9.42665L33.12 14.0133L29 11.8466L24.88 14.0133L25.6667 9.42665L22.3333 6.17998L26.94 5.50665L29 1.33331Z" fill="#FFC120" stroke="#FFC120" stroke-width="1.5" stroke-linecap="round" stroke-linejoin="round"/>
<path d="M50 1.33331L52.06 5.50665L56.6667 6.17998L53.3333 9.42665L54.12 14.0133L50 11.8466L45.88 14.0133L46.6667 9.42665L43.3333 6.17998L47.94 5.50665L50 1.33331Z" fill="#FFC120" stroke="#FFC120" stroke-width="1.5" stroke-linecap="round" stroke-linejoin="round"/>
<path d="M71 1.33331L73.06 5.50665L77.6667 6.17998L74.3333 9.42665L75.12 14.0133L71 11.8466L66.88 14.0133L67.6667 9.42665L64.3333 6.17998L68.94 5.50665L71 1.33331Z" fill="#FFC120" stroke="#FFC120" stroke-width="1.5" stroke-linecap="round" stroke-linejoin="round"/>
<path d="M92 1.33331L94.06 5.50665L98.6667 6.17998L95.3333 9.42665L96.12 14.0133L92 11.8466L87.88 14.0133L88.6667 9.42665L85.3333 6.17998L89.94 5.50665L92 1.33331Z" fill="#FFC120" stroke="#FFC120" stroke-width="1.5" stroke-linecap="round" stroke-linejoin="round"/>
</svg>
